<?xml version="1.0" encoding="UTF-8"?>
<!DOCTYPE svg PUBLIC "-//W3C//DTD SVG 1.1//EN" "http://www.w3.org/Graphics/SVG/1.1/DTD/svg11.dtd">
<!-- Creator: CorelDRAW -->
<svg xmlns="http://www.w3.org/2000/svg" xml:space="preserve" width="48px" height="48px" style="shape-rendering:geometricPrecision; text-rendering:geometricPrecision; image-rendering:optimizeQuality; fill-rule:evenodd; clip-rule:evenodd"
viewBox="0 0 640 640"
 xmlns:xlink="http://www.w3.org/1999/xlink">
 <defs>
  <style type="text/css">
   <![CDATA[
    .fil0 {fill:white}
   ]]>
  </style>
 </defs>
 <g id="Layer_x0020_1">
  <metadata id="CorelCorpID_0Corel-Layer"/>
  <path class="fil0" d="M43.1344 210.676l116.872 0 0 -138.451c0,-27.9216 22.8546,-50.7762 50.7762,-50.7762l378.453 0c27.9216,0 50.7762,22.8546 50.7762,50.7762l0 378.453c0,27.9216 -22.8546,50.7762 -50.7762,50.7762l-181.36 0 0 73.9497c0,23.7523 -19.3939,43.1462 -43.1462,43.1462l-321.595 0c-23.7523,0 -43.1462,-19.3939 -43.1462,-43.1462l0 -321.583c0,-23.7523 19.3939,-43.1462 43.1462,-43.1462zm116.872 106.064l-119.127 0 0 226.408c0,18.9924 15.5199,34.5122 34.5122,34.5122l257.082 0c18.9924,0 34.5122,-15.5199 34.5122,-34.5122l0 -41.6934 -156.203 0c-27.9216,0 -50.7762,-22.8546 -50.7762,-50.7762l0 -133.939zm431.852 -161.778l-383.709 0 0 257.755c0,22.3349 18.2483,40.5832 40.595,40.5832l302.531 0c22.3349,0 40.5832,-18.2483 40.5832,-40.5832l0 -257.755z"/>
 </g>
</svg>
